Coordinates
nRows=227
nColumns=2
inDegrees=yes
endheader
time	ankle_angle_r	
3.42641	 -0.045135	
3.45968	  0.025197	
3.49294	  0.005127	
3.52621	  0.000000	
3.55948	  0.061035	
3.59274	  0.000000	
3.62601	 -0.034871	
3.65927	  0.026357	
3.69254	  0.036163	
3.72581	  0.015259	
3.75907	  0.039937	
3.79234	  0.011872	
3.8256	 -0.103618	
3.85887	  0.018388	
3.89214	 -0.061035	
3.9254	 -0.078907	
3.95867	 -0.024098	
3.99194	 -0.113328	
4.0252	  0.047810	
4.05847	  0.028678	
4.09173	 -0.077941	
4.125	 -0.106812	
4.15827	 -0.054036	
4.19153	 -0.076294	
4.2248	 -0.076294	
4.25806	  0.030518	
4.29133	 -0.091553	
4.3246	  0.030518	
4.35786	  0.015159	
4.39113	 -0.053453	
4.4244	 -0.007773	
4.45766	 -0.015739	
4.49093	 -0.083586	
4.52419	 -0.091553	
4.55746	 -0.022358	
4.59073	 -0.008256	
4.62399	 -0.013811	
4.65726	  0.006809	
4.69052	 -0.083006	
4.72379	 -0.098168	
4.75706	 -0.021778	
4.79032	 -0.122070	
4.82359	 -0.104204	
4.85685	 -0.018687	
4.89012	 -0.070162	
4.92339	 -0.039741	
4.95665	 -0.033899	
4.98992	 -0.036360	
5.02319	 -0.116325	
5.05645	  0.061035	
5.08972	  0.000000	
5.12298	 -0.076294	
5.15625	  0.009900	
5.18952	 -0.045249	
5.22278	  0.010331	
5.25605	 -0.030518	
5.28931	 -0.081609	
5.32258	  0.081169	
5.35585	 -0.040998	
5.38911	  0.045776	
5.42238	 -0.036606	
5.45565	 -0.019747	
5.48891	 -0.076294	
5.52218	  0.034813	
5.55544	 -0.019457	
5.58871	 -0.056933	
5.62198	  0.045015	
5.65524	 -0.045776	
5.68851	  0.034329	
5.72177	  0.034233	
5.75504	 -0.045776	
5.78831	 -0.079816	
5.82157	  0.045776	
5.85484	  0.006657	
5.8881	 -0.045776	
5.92137	 -0.027383	
5.95464	 -0.048815	
5.9879	 -0.149646	
6.02117	 -0.048621	
6.05444	 -0.076294	
6.0877	 -0.106812	
6.12097	 -0.022853	
6.15423	  0.015259	
6.1875	 -0.109173	
6.22077	 -0.076294	
6.25403	 -0.095889	
6.2873	 -0.137329	
6.32056	 -0.074319	
6.35383	 -0.034274	
6.3871	 -0.096897	
6.42036	  0.013574	
6.45363	 -0.035282	
6.4869	 -0.032009	
6.52016	  0.029123	
6.55343	  0.013961	
6.58669	 -0.106812	
6.61996	 -0.043567	
6.65323	 -0.093568	
6.68649	 -0.075383	
6.71976	 -0.030518	
6.75302	 -0.031235	
6.78629	 -0.060414	
6.81956	 -0.045252	
6.85282	 -0.122070	
6.88609	 -0.045445	
6.91935	 -0.060801	
6.95262	 -0.061035	
6.98589	 -0.045735	
7.01915	 -0.122070	
7.05242	 -0.076599	
7.08569	 -0.137329	
7.11895	 -0.061381	
7.15222	 -0.107696	
7.18548	 -0.016337	
7.21875	 -0.061671	
7.25202	 -0.151123	
7.28528	 -0.107641	
7.31855	 -0.029592	
7.35181	 -0.030518	
7.38508	 -0.030518	
7.41835	 -0.016475	
7.45161	 -0.047089	
7.48488	 -0.122070	
7.51815	  0.027506	
7.55141	 -0.064240	
7.58468	 -0.091553	
7.61794	 -0.040388	
7.65121	 -0.053464	
7.68448	 -0.034496	
7.71774	  0.061035	
7.75101	  0.056670	
7.78427	  0.023679	
7.81754	 -0.030518	
7.85081	 -0.028045	
7.88407	  0.000000	
7.91734	 -0.048443	
7.9506	 -0.018022	
7.98387	 -0.002860	
8.01714	 -0.002956	
8.0504	  0.015259	
8.08367	  0.027368	
8.11694	  0.076294	
8.1502	  0.061035	
8.18347	  0.057595	
8.21673	  0.038704	
8.25	  0.007266	
8.28327	 -0.007459	
8.31653	  0.076294	
8.3498	 -0.064958	
8.38306	  0.004020	
8.41633	 -0.052802	
8.4496	 -0.006832	
8.48286	 -0.056725	
8.51613	  0.041370	
8.5494	 -0.030518	
8.58266	  0.030518	
8.61593	  0.024652	
8.64919	 -0.102018	
8.68246	 -0.005479	
8.71573	 -0.051062	
8.74899	 -0.035601	
8.78226	  0.020439	
8.81552	 -0.050482	
8.84879	 -0.081667	
8.88206	  0.035988	
8.91532	 -0.055468	
8.94859	 -0.080226	
8.98185	  0.061035	
9.01512	  0.042231	
9.04839	 -0.049128	
9.08165	  0.024467	
9.11492	 -0.030518	
9.14819	 -0.036761	
9.18145	 -0.052117	
9.21472	 -0.122070	
9.24798	  0.023984	
9.28125	  0.021889	
9.31452	 -0.023791	
9.34778	 -0.033740	
9.38105	 -0.047194	
9.41431	 -0.076294	
9.44758	 -0.053921	
9.48085	  0.022469	
9.51411	 -0.160540	
9.54738	 -0.068439	
9.58065	 -0.084052	
9.61391	 -0.122006	
9.64718	 -0.129635	
9.68044	  0.061035	
9.71371	 -0.114183	
9.74698	 -0.153297	
9.78024	 -0.083472	
9.81351	 -0.144411	
9.84677	 -0.099827	
9.88004	 -0.016741	
9.91331	 -0.054244	
9.94657	 -0.076294	
9.97984	  0.037116	
10.0131	  0.045776	
10.0464	 -0.002449	
10.0796	 -0.049442	
10.1129	 -0.012423	
10.1462	 -0.054921	
10.1794	  0.091553	
10.2127	  0.066956	
10.246	 -0.085728	
10.2792	 -0.101084	
10.3125	 -0.040145	
10.3458	  0.005535	
10.379	 -0.019642	
10.4123	 -0.010682	
10.4456	 -0.020503	
10.4788	  0.045961	
10.5121	 -0.030518	
10.5454	  0.030122	
10.5786	  0.031203	
10.6119	 -0.045776	
10.6452	  0.045776	
10.6784	  0.082417	
10.7117	  0.045776	
10.745	  0.050151	
10.7782	  0.030518	
10.8115	  0.004181	
10.8448	 -0.030518	
10.878	 -0.007975	
10.9113	 -0.026931	
10.9446	  0.030518	
